<svg version="1.2" xmlns="http://www.w3.org/2000/svg" viewBox="0 0 600 800" width="600" height="800"><style>.s0{fill:#000000}.s1{fill:#e43332}</style><path class="s0" d="m49 45h251h251v256v256h-8h-8v-247.5v-247.5h-234.5h-234.5v247.5v247.5h-8.5h-8.5v-256z" /><path fill-rule="evenodd" class="s1" d="m371.5 95.5c37.6 7.6 75.3 28.2 102.5 55.9l5.5 5.6l-30.4 30.4l-30.4 30.5l5.7 7c64.5 79.8 58.2 194.9-14.6 267.3c-59.8 59.4-151.3 74.6-227.3 37.8c-19.5-9.4-36.4-21.3-53.8-37.9l-7.8-7.5l30.5-30.5l30.5-30.6l-5-6c-14-16.7-28.4-42.8-35.4-64c-33.2-101.2 18-209.8 117.4-248.9c12.2-4.8 33-10.1 45.1-11.5c5.2-0.6 10.9-1.3 12.5-1.5c13.1-1.5 36.5 0.2 55 3.9zm31.5 136.6c-0.3-0.1-9.9 9.3-21.3 20.7l-20.8 20.9l4 6.4c6.6 10.7 9.4 20.3 9.9 34.9c0.5 14.2-0.9 21.8-5.8 32.6c-12.6 27.9-40.5 44.9-71 43.1c-13.1-0.8-25.5-4.9-37.3-12.4l-2.7-1.8l-53.8 53.8l-53.7 53.8l3.9 3.2c20.7 17.1 45.8 30 70.4 36.2c59.8 15.1 122.7-1.1 166.8-42.8c16.7-15.8 28.6-32 38.4-52.2c30.2-62.3 21.6-137-21.9-190.7c-2.5-3.1-4.8-5.7-5.1-5.7zm-110 34c-3 0.5-9.3 2.7-13.9 5c-26.4 13-36.6 43.8-23.3 70.9c3.5 7.3 15 18.7 22.4 22.2c27.2 13.2 57.8 3 70.8-23.5c6.5-13.4 7.4-26.9 2.5-40.7c-5.2-14.7-18.3-27.4-33-31.9c-7.8-2.4-18.3-3.3-25.5-2z" /><path class="s0" d="" /><path fill-rule="evenodd" class="s0" d="m155.2 584.2c23.2 10.7 28.6 41.1 10.6 59.1c-12.2 12.2-31.7 14.2-46.1 4.6c-5.7-3.7-12-11.7-14.3-18c-2.2-6-2.3-18.1-0.1-24.4c3.4-10.1 13.3-19.7 23.6-23c7.2-2.3 19.2-1.5 26.3 1.7zm-38.3 27.2c-2.5 9.3 1.6 20.2 10 26.1c4 2.8 4.9 3 13.1 3c8.2 0 9.1-0.2 13.1-3c9.7-6.8 13.4-18.9 8.9-29.3c-2.4-5.6-7.4-10.7-12.4-12.7c-13.8-5.5-28.9 1.8-32.7 15.9z" /><path fill-rule="evenodd" class="s0" d="m453.5 581.3c17.2 0.7 30 11.2 34.1 28c4.1 16.4-4.6 34.1-20.4 41.5c-4.9 2.3-7 2.7-15.2 2.7c-8.2 0-10.3-0.4-15.2-2.7c-7.5-3.5-14.2-10.4-18-18.5c-2.7-5.6-3.1-7.6-3.1-14.7c0.1-9.4 1.8-14.6 7.3-22.1c4.4-5.9 10.1-10.1 17.3-12.7c3.9-1.4 7.3-1.8 13.2-1.5zm-15 16.5c-4.3 3-9.2 10.2-9.7 14.2c-0.3 2.4-0.1 2.5 5.8 2.8c6.1 0.3 6.2 0.2 8.2-3.1c4.1-7 14.3-7.1 18.4-0.1c1.9 3.2 2.3 3.4 7.8 3.4c3.3 0 6.2-0.4 6.5-1c0.3-0.5-0.4-3.2-1.6-6c-2.3-5.4-7.3-10.5-12.3-12.5c-7.7-3.1-16.7-2.2-23.1 2.3zm13.6 14.2c-2.3 0-5.1 3.1-5.1 5.7c0 2.3 2.9 5.3 5.3 5.3c4.1 0 6.2-6.3 3.1-9.4c-0.8-0.9-2.3-1.6-3.3-1.6zm-17.1 8c-3.2 0-6.1 0.3-6.3 0.8c-0.9 1.3 2.1 8.4 5.1 12c4.4 5.5 10.3 8.2 17.9 8.2c10.5 0 17.7-4.5 21.9-13.5c3.5-7.3 3.4-7.5-4-7.5c-6.2 0-6.5 0.1-8.4 3.4c-2.9 4.9-8.4 6.5-13.6 4.1c-2-1-4.4-3.1-5.2-4.6c-1.3-2.7-1.9-2.9-7.4-2.9z" /><path fill-rule="evenodd" class="s0" d="m40 581.9l17.3 0.3c17.3 0.3 17.4 0.3 21.5 3.2c7.8 5.4 11.3 16.8 7.6 25.4c-3.9 9.4-10.8 13.1-24.1 13.2h-9.3v29h-13zm22.1 12.3l-9.1-0.4v17.2h8.8c8 0 9.1-0.2 11-2.3c2.8-2.9 2.9-8.6 0.3-11.8c-1.7-2.1-2.9-2.4-11-2.7z" /><path class="s0" d="m196 582h6h6v13.5c0 7.4 0.3 13.5 0.8 13.4c0.4 0 5.5-6 11.3-13.2l10.5-13.2l8.3-0.3l8.2-0.3l-14.1 17.6c-8.9 11-13.8 18-13.3 18.8c0.8 1.3 23.3 28.8 26.6 32.4l2 2.3h-8.4h-8.4l-9-11.1c-4.9-6-9.5-11.7-10.2-12.6c-1-1.3-1.5-1.4-2.8-0.3c-1.2 1-1.5 3.6-1.5 12.6v11.4h-6h-6v-35.5z" /><path class="s0" d="m266 582h19h19v6v6h-12.5h-12.5v8.5v8.5h9.5h9.5v6.5v6.5h-9.5h-9.5v8.5v8.5h12.5h12.5v6v6h-19h-19v-35.5z" /><path class="s0" d="m323 581.9l6.7 0.3l6.7 0.3l11.5 26.7c6.3 14.8 11.8 26.8 12.1 26.8c0.3 0 5.7-12.1 12.1-26.8l11.6-26.7l6.7-0.3l6.6-0.3v35.6v35.5h-6.5h-6.5l-0.2-19.2l-0.3-19.1l-8.4 19.2l-8.4 19.2l-6.9-0.3l-7-0.3l-8.1-18.9l-8.2-18.9l-0.3 19.1l-0.2 19.2h-6.5h-6.5v-35.5z" /><path class="s0" d="m507 582h6.3h6.2l14 23.2l14 23.3l0.3-23.3l0.2-23.2h6h6v35.5v35.5h-6.4h-6.3l-13.9-23.2l-13.9-23.2l-0.3 23.2l-0.2 23.2h-6h-6v-35.5z" /><path class="s0" d="m49 685h8.5h8.5v22v22h43.5h43.5v8v8h-52h-52v-30z" /><path class="s0" d="m535 685h8h8v30v30h-52h-52v-8v-8l43.8-0.2l43.7-0.3l0.3-21.8z" /><path class="s1" d="m223.1 699l3.4 2.8l-3.9 4l-3.8 4l-3.2-1.9c-4.2-2.6-11-2.5-13.6 0.1c-4.2 4.2-1.5 7.5 8.8 10.8c9.4 3 14.5 6.9 16.7 12.6c3.1 8-0.2 16-8.4 20.3c-7.8 4.1-19.8 2.7-25.9-3c-2.3-2.1-5.7-7.6-5-8.1c0.2-0.2 2.5-1 5.2-1.9c4.9-1.7 4.9-1.7 7.2 0.8c3.8 4.1 10.5 4.5 14.7 0.8c4.2-3.8 1.2-7.2-9.3-10.8c-13.2-4.5-17.5-9.6-16.8-19.7c0.4-5.1 0.9-6.4 3.9-9.4c2-1.9 5.3-4.1 7.5-4.9c7.5-2.7 16.9-1.2 22.5 3.5z" /><path fill-rule="evenodd" class="s1" d="m330.7 694.5c7.4 0.5 14.2 3.7 19.5 9.2c11.7 12.1 10.9 32-1.8 43.2c-5.5 4.9-11.8 7.1-19.9 7.1c-8.1 0-14.4-2.2-19.9-7.1c-13.3-11.7-13.6-32.2-0.5-44.4c4.7-4.4 7.3-5.9 13.4-7.6c1.7-0.4 5.8-0.6 9.2-0.4zm-18.8 22c-3.7 8-2 15.5 4.9 21.7c7.6 6.8 18.2 5.9 25.6-2.2c5.6-6.3 6.1-14.7 1.1-22.1c-1.4-2.1-4.3-4.8-6.5-5.9c-9.4-4.8-20.8-1-25.1 8.5z" /><path class="s1" d="m243 695h5.5h5.4l0.3 11.7l0.3 11.8h9.5h9.5l0.3-11.8l0.3-11.7h5.4h5.5v29.5v29.5h-5.5h-5.5v-12v-12h-10h-10v12v12h-5.5h-5.5v-29.5z" /><path fill-rule="evenodd" class="s1" d="m372 695h13.5c14.7 0 16.9 0.6 21.7 5.7c7.7 8.1 5.9 21.2-3.8 26.9c-3.3 2-5.5 2.4-11.7 2.4h-7.7v24h-12zm17.9 11h-5.9v13h5.9c7 0 10.4-2.1 10.4-6.5c0-1.8-0.9-3.6-2.3-4.7c-1.6-1.3-3.9-1.8-8.1-1.8z" /></svg>