<svg version="1.2" xmlns="http://www.w3.org/2000/svg" viewBox="0 0 43 43" width="43" height="43">
	<title>logo-svg</title>
	<style>
		.s0 { fill: #000000 } 
		.s1 { fill: #ffffff } 
		.s2 { fill: #ed1c24 } 
	</style>
	<path id="Layer" class="s0" d="m42.6 21.5c0 11.7-9.5 21.3-21.3 21.3c-11.7 0-21.3-9.5-21.3-21.3c0-11.8 9.5-21.3 21.3-21.3c11.7 0 21.3 9.5 21.3 21.3z" />
	<g id="Layer">
		<path id="Layer" class="s1" d="m7.6 7.8c3.7-3.7 8.6-5.7 13.7-5.7c5.1 0 10.1 2 13.7 5.7c3.3 3.3 5.3 7.6 5.6 12.3h-10.2c-0.3-1.9-1.2-3.7-2.6-5.1c-1.8-1.7-4.1-2.7-6.5-2.7c-4.6 0-8.4 3.4-9.1 7.8h-10.2c0.3-4.7 2.2-9 5.6-12.3z" />
		<path id="Layer" class="s1" d="m27.6 21.5c0 3.5-2.8 6.3-6.3 6.3c-1.7 0-3.3-0.7-4.5-1.9c-1.2-1.2-1.9-2.8-1.9-4.5c0-1.7 0.7-3.3 1.9-4.5c1.2-1.2 2.8-1.8 4.5-1.9c1.7 0 3.3 0.7 4.5 1.8c1.2 1.4 1.8 3 1.8 4.7z" />
		<path id="Layer" class="s1" d="m21.3 40.9c-5.2 0-10.1-2-13.7-5.7c-3.4-3.3-5.3-7.6-5.6-12.2h10.2c0.3 1.9 1.2 3.7 2.6 5.1c1.7 1.7 4.1 2.7 6.5 2.7c2.5 0 4.8-1 6.5-2.7c1.4-1.4 2.3-3.2 2.6-5.1h10.2c-0.7 10-9.1 17.9-19.3 17.9z" />
	</g>
	<path id="Layer" class="s2" d="m39.2 18.9h-7.6c-1.1-4.7-5.3-8.1-10.3-8.1c-5 0-9.2 3.5-10.3 8.1h-7.6v-0.1l5.7-1.1l-5.2-1v-0.1l6.6-1.3l-5.6-1.1l7.2-1.4l-5.8-1.1l7.7-1.5l-5.6-1.1l8.3-1.6l-5.2-1l8.1-1.6l-3.6-0.7c1.7-0.5 3.4-0.8 5.3-0.8c9.1 0 16.7 6.8 17.9 15.5z" />
	<path id="Layer" class="s0" d="m39.3 23.9c-0.1 0.8-0.3 1.5-0.5 2.2c-0.1 0.2-0.2 0.4-0.2 0.6q-0.3 0.9-0.6 1.8q-0.1 0.3-0.3 0.6q-0.6 1-1.2 2.1c-0.2 0.3-0.3 0.5-0.5 0.7c-0.5 0.8-1.2 1.6-1.9 2.3c-0.3 0.3-0.5 0.6-0.8 0.8c-0.7 0.6-1.5 1.2-2.3 1.7c-0.6 0.4-1.2 0.8-1.9 1.1q-3.6 1.8-7.8 1.8c-1.1 0-2.3-0.1-3.3-0.3l9.3-1.9l-4.9-1l9.2-1.8l-6.4-1.2l9.3-1.8l-6.2-1.2l8-1.6l-5.6-1.1l6.5-1.3l-5.3-1z" />
	<path id="Layer" class="s0" d="m17.6 21.5c0-2 1.7-3.7 3.7-3.7c2 0 3.7 1.7 3.7 3.7c0 2-1.7 3.7-3.7 3.7c-2 0-3.7-1.7-3.7-3.7z" />
</svg>